<?xml version="1.0" encoding="iso-8859-1"?>
<!-- Generator: Adobe Illustrator 19.0.0, SVG Export Plug-In . SVG Version: 6.00 Build 0)  -->
<svg version="1.1" id="Layer_1" xmlns="http://www.w3.org/2000/svg" xmlns:xlink="http://www.w3.org/1999/xlink" x="0px" y="0px"
	 viewBox="0 0 512 512" style="enable-background:new 0 0 512 512;" xml:space="preserve">
<g>
	<path style="fill:#F1B14F;" d="M256,0C114.616,0,0,114.616,0,256s114.616,256,256,256s256-114.616,256-256S397.384,0,256,0L256,0z"
		/>
	<path style="fill:#FED9CA;" d="M256.415,512H256H256.415L256.415,512z M256.614,512h-0.026H256.614L256.614,512z M256.824,512
		h-0.072H256.824L256.824,512z M257.034,512h-0.113H257.034L257.034,512z M257.234,511.995h-0.097H257.234L257.234,511.995z
		 M257.444,511.995h-0.087H257.444L257.444,511.995z M257.649,511.995h-0.113H257.649L257.649,511.995z M257.853,511.995h-0.108
		H257.853L257.853,511.995z M258.058,511.99h-0.092H258.058L258.058,511.99z M258.263,511.99h-0.077H258.263L258.263,511.99z
		 M258.473,511.99h-0.082H258.473L258.473,511.99z M258.678,511.985h-0.102H258.678L258.678,511.985z M258.883,511.985h-0.097
		H258.883L258.883,511.985z M259.087,511.98h-0.082H259.087L259.087,511.98z M259.292,511.98h-0.077H259.292L259.292,511.98z
		 M259.497,511.974h-0.072H259.497L259.497,511.974z M259.702,511.974h-0.046H259.702L259.702,511.974z M259.907,511.969h-0.046
		H259.907L259.907,511.969z M260.111,511.969h-0.046H260.111L260.111,511.969z M260.316,511.964h-0.046H260.316L260.316,511.964z
		 M260.521,511.959h-0.036H260.521L260.521,511.959z M260.726,511.959h-0.046H260.726L260.726,511.959z M260.931,511.954h-0.051
		H260.931L260.931,511.954z M261.135,511.949h-0.046H261.135L261.135,511.949z M261.345,511.944h-0.056H261.345L261.345,511.944z
		 M261.55,511.939h-0.056H261.55L261.55,511.939z M261.75,511.939h-0.036H261.75L261.75,511.939z M261.955,511.933h-0.026H261.955
		L261.955,511.933z M262.154,511.928h-0.015H262.154L262.154,511.928z M262.359,511.923h-0.02H262.359L262.359,511.923z
		 M262.564,511.918h-0.02H262.564L262.564,511.918z M262.769,511.913h-0.01H262.769L262.769,511.913z M262.968,511.908
		L262.968,511.908L262.968,511.908L262.968,511.908z M263.378,511.898L263.378,511.898L263.378,511.898L263.378,511.898z"/>
	<path style="fill:#F0973E;" d="M127.181,359.045l0.026,0.005L127.181,359.045L127.181,359.045z M127.124,359.03L127.124,359.03
		L127.124,359.03L127.124,359.03z M173.23,333.706l-18.319,18.319c-5.729,5.294-13.015,7.956-20.296,7.956
		c-2.478,0-4.956-0.307-7.373-0.927c2.437,0.625,4.936,0.932,7.439,0.932c7.173,0,14.351-2.565,20.029-7.7l1.193-1.198
		L173.23,333.706L173.23,333.706z M269.788,235.52c-0.338,1.254-1.019,2.442-2.058,3.456l-94.5,94.73l94.5-94.725
		C268.764,237.967,269.45,236.774,269.788,235.52L269.788,235.52z M269.798,235.484L269.798,235.484L269.798,235.484
		L269.798,235.484z M257.787,208.046l0.036,0.128L257.787,208.046L257.787,208.046z M316.18,161.336
		c-2.673,0-5.345,0.353-7.946,1.065c-2.719,10.01-0.215,21.105,7.572,28.974l-0.031,0.031c11.407,11.52,11.443,30.065,0.225,41.866
		l-0.998,1.039L176.968,372.403l-0.087,0.087l-0.338,0.333l-9.697,9.702l-11.034,11.039c-5.837,5.775-13.455,8.663-21.069,8.663
		c-6.518,0-13.036-2.115-18.432-6.349c7.767,7.859,63.227,63.401,114.668,114.898C239.212,511.565,247.557,512,256,512h0.415h0.179
		h0.026h0.138h0.072h0.097h0.113h0.108h0.097h0.118h0.087h0.092h0.113h0.097h0.108h0.113h0.092h0.128h0.077h0.123h0.082h0.108h0.102
		h0.108h0.097h0.123h0.082h0.128h0.077h0.138h0.072h0.154h0.046h0.164h0.046h0.159h0.046h0.159h0.046l0.164-0.005h0.036l0.164-0.005
		h0.046l0.154-0.005h0.051l0.159-0.005h0.046l0.154-0.005h0.056l0.148-0.005h0.056l0.164-0.005h0.036l0.179-0.005h0.026l0.184-0.005
		h0.015l0.184-0.005h0.02l0.184-0.005h0.02l0.189-0.005h0.01l0.2-0.005l0,0l0.41-0.01l0,0
		c136.965-3.876,246.948-115.348,248.545-252.872l-94.874-94.874l-0.783-0.046l0.425,0.425c-1.572,1.51-4.311,4.311-4.311,4.311
		l-14.899-5.791l-3.615-0.205l1.761,22.723l-19.86-19.86l-0.184-0.159l20.045,20.045c-1.572,1.516-4.311,4.311-4.311,4.311
		l-56.33-21.898C329.533,163.558,322.867,161.336,316.18,161.336L316.18,161.336z M357.617,147.594l1.295,1.285l4.111,4.111
		l-4.183-4.224L357.617,147.594L357.617,147.594z M296.719,125.875c-0.548,0.502-1.085,1.019-1.623,1.546l-21.53,21.53l21.53-21.53
		C295.634,126.894,296.172,126.377,296.719,125.875L296.719,125.875z M296.76,125.839l-0.036,0.036L296.76,125.839L296.76,125.839z"
		/>
	<path style="fill:#6EBEC5;" d="M356.05,146.944l56.325,21.898c0,0,2.739-2.796,4.311-4.311l-36.716-36.716
		c-1.884-1.94-3.937-3.712-6.083-5.34c-23.439-18.074-57.354-16.302-79.14,5.309c-16.215,16.046-21.581,38.943-15.872,59.325
		c1.94,7.081,5.222,13.844,9.82,19.927l0.113,0.113l1.055,1.341c1.915,2.995,1.597,6.794-1.085,9.421l-94.484,94.73l-17.331,17.388
		l-21.156,21.212c-7.823,7.823-18.898,10.394-28.861,7.736l-21.064,21.064l12.938,10.941l17.28-17.28
		c11.715,10.296,29.542,9.907,40.781-1.219l0.087-0.087l138.035-138.092c11.878-11.761,12.017-30.802,0.399-42.537l0.031-0.031
		c-11.679-11.791-11.448-30.863,0.43-42.624C326.989,138.097,344.32,137.38,356.05,146.944L356.05,146.944z"/>
	<polygon style="fill:#CEEAF2;" points="389.417,167.142 412.723,168.479 417.05,164.152 393.748,162.811 	"/>
	<polygon style="fill:none;stroke:#000000;stroke-width:0.789;stroke-miterlimit:10;" points="289.71,207.636 288.625,206.321 
		288.538,206.177 288.655,206.29 	"/>
	<polygon style="fill:none;stroke:#000000;stroke-width:0.87;stroke-miterlimit:10;" points="289.71,207.636 288.625,206.321 
		288.655,206.29 	"/>
	<polygon style="fill:none;stroke:#000000;stroke-width:0.87;stroke-miterlimit:10;" points="289.71,207.636 288.625,206.321 
		288.538,206.177 288.655,206.29 	"/>
	<path style="fill:#6EBEC5;" d="M358.84,148.762l15.396,15.555c0.492,0.497,1.014,0.942,1.531,1.398l19.86,19.86l-1.761-22.723
		l23.183,1.3l-36.69-36.69c-1.915-1.935-3.973-3.722-6.088-5.345c-23.444-18.058-57.364-16.282-79.171,5.309l-21.53,21.53
		l5.642,5.642c-2.883,10.537-2.898,21.683,0.026,32.159c1.951,7.076,5.238,13.844,9.841,19.927l0.113,0.113l1.039,1.336
		c1.905,3.016,1.551,7.02-1.116,9.661L134.753,372.285l21.053,21.268l159.529-159.611c11.878-11.761,12.063-30.802,0.435-42.542
		l0.031-0.031c-11.679-11.802-11.469-30.868,0.41-42.629C328.115,136.955,347.156,136.965,358.84,148.762L358.84,148.762z"/>
	<path style="fill:#FFFFFF;" d="M380.36,127.457c-0.814-0.819-1.664-1.603-2.524-2.371l-21.458,21.458
		c0.85,0.686,1.674,1.418,2.463,2.217l15.396,15.555c0.492,0.497,1.014,0.942,1.531,1.398l19.86,19.86l-1.761-22.723l23.183,1.3
		L380.36,127.457z"/>
	<path style="fill:#3194B0;" d="M334.991,168.008l56.33,21.898c0,0,2.739-2.796,4.311-4.311l-36.721-36.716
		c-1.884-1.94-3.937-3.712-6.083-5.34c-23.439-18.074-57.354-16.302-79.14,5.309c-16.215,16.046-21.581,38.943-15.872,59.325
		c1.94,7.081,5.222,13.844,9.82,19.927l0.113,0.113l1.055,1.341c1.915,2.995,1.597,6.794-1.085,9.421l-94.49,94.73l-17.331,17.388
		l-21.156,21.212c-7.823,7.823-18.898,10.394-28.861,7.736c1.285,4.941,3.855,9.564,7.706,13.42
		c11.648,11.648,30.52,11.679,42.225,0.087l0.087-0.087L293.934,255.37c11.878-11.761,12.022-30.802,0.399-42.537l0.031-0.031
		c-11.679-11.791-11.448-30.863,0.43-42.624C305.925,159.155,323.256,158.444,334.991,168.008L334.991,168.008z"/>
	<path style="fill:#CEEAF2;" d="M358.938,148.879c-0.814-0.819-1.664-1.603-2.524-2.371l-21.458,21.458l0.046,0.031l-0.005-0.005
		l56.305,21.903c0,0,2.77-2.785,4.332-4.332L358.938,148.879z"/>
	<polygon style="fill:#6EBEC5;" points="173.286,333.763 134.743,372.306 155.899,351.094 173.23,333.706 	"/>
	
		<rect x="201.4" y="230.469" transform="matrix(-0.7071 -0.7071 0.7071 -0.7071 148.913 685.2599)" style="fill:#E46A5D;" width="29.957" height="162.64"/>
	
		<rect x="255.993" y="253.08" transform="matrix(-0.7071 -0.7071 0.7071 -0.7071 280.7682 630.5316)" style="fill:#FFFFFF;" width="29.957" height="8.074"/>
	
		<rect x="141.016" y="368.098" transform="matrix(-0.7071 -0.7071 0.7071 -0.7071 3.1598 745.5792)" style="fill:#FFFFFF;" width="29.957" height="8.074"/>
	<path style="fill:#8BCBD3;" d="M337.874,109.839c-0.543,0-1.091,0.005-1.633,0.02l-21.356,21.356
		c0.517-0.015,1.029-0.02,1.546-0.02c6.298,0,12.585,0.983,18.611,2.949l21.386-21.386
		C350.413,110.807,344.151,109.839,337.874,109.839L337.874,109.839z"/>
	<path style="fill:#60AEC4;" d="M316.426,131.195c-0.517,0-1.029,0.005-1.546,0.02l-0.056,0.056c0.538-0.015,1.075-0.02,1.613-0.02
		c6.282,0,12.544,0.973,18.56,2.929l0.036-0.036C329.011,132.178,322.724,131.195,316.426,131.195L316.426,131.195z"/>
	<path style="fill:#8BCBD3;" d="M320.333,197.412l-21.407,21.407c2.857,4.915,4.188,10.481,4.004,16.015l21.391-21.391
		C324.521,207.898,323.19,202.337,320.333,197.412L320.333,197.412z"/>
	<path style="fill:#60AEC4;" d="M298.926,218.819l-0.026,0.026c2.857,4.92,4.193,10.476,4.004,16.015l0.026-0.026
		C303.114,229.299,301.783,223.734,298.926,218.819L298.926,218.819z"/>
</g>
<g>
</g>
<g>
</g>
<g>
</g>
<g>
</g>
<g>
</g>
<g>
</g>
<g>
</g>
<g>
</g>
<g>
</g>
<g>
</g>
<g>
</g>
<g>
</g>
<g>
</g>
<g>
</g>
<g>
</g>
</svg>
